<?xml version="1.0" encoding="utf-8"?>
<!-- Generator: Adobe Illustrator 23.0.0, SVG Export Plug-In . SVG Version: 6.00 Build 0)  -->
<svg version="1.1"
	 id="svg2" inkscape:export-filename="res/drawable-xxhdpi/icon.png" inkscape:export-xdpi="24" inkscape:export-ydpi="24" inkscape:version="0.92.0 r" sodipodi:docname="icon.svg" xmlns:cc="http://creativecommons.org/ns#" xmlns:dc="http://purl.org/dc/elements/1.1/" xmlns:inkscape="http://www.inkscape.org/namespaces/inkscape" xmlns:rdf="http://www.w3.org/1999/02/22-rdf-syntax-ns#" xmlns:sodipodi="http://sodipodi.sourceforge.net/DTD/sodipodi-0.dtd" xmlns:svg="http://www.w3.org/2000/svg"
	 xmlns="http://www.w3.org/2000/svg" xmlns:xlink="http://www.w3.org/1999/xlink" x="0px" y="0px" viewBox="0 0 153.6 153.6"
	 style="enable-background:new 0 0 153.6 153.6;" xml:space="preserve">
<style type="text/css">
	.st0{fill:#FFFFFF;}
	.st1{fill:none;stroke:#000000;stroke-width:3;stroke-miterlimit:10;}
</style>
<filter  id="filter3371" inkscape:label="Drop Shadow" style="color-interpolation-filters:sRGB">
	<feFlood  flood-color="rgb(0,0,0)" flood-opacity="0.498039" id="feFlood3373" result="flood"></feFlood>
	<feComposite  id="feComposite3375" in="flood" in2="SourceGraphic" operator="in" result="composite1"></feComposite>
	<feGaussianBlur  id="feGaussianBlur3377" in="composite1" result="blur" stdDeviation="3"></feGaussianBlur>
	<feOffset  dx="0" dy="0" id="feOffset3379" result="offset"></feOffset>
	<feComposite  id="feComposite3381" in="SourceGraphic" in2="offset" operator="over" result="composite2"></feComposite>
</filter>
<sodipodi:namedview  bordercolor="#666666" borderopacity="1.0" fit-margin-bottom="0" fit-margin-left="0" fit-margin-right="0" fit-margin-top="0" id="base" inkscape:current-layer="layer1" inkscape:cx="-1062.677" inkscape:cy="368.52192" inkscape:document-units="px" inkscape:pageopacity="0.0" inkscape:pageshadow="2" inkscape:window-height="829" inkscape:window-maximized="1" inkscape:window-width="1440" inkscape:window-x="0" inkscape:window-y="34" inkscape:zoom="0.24748737" pagecolor="#ffffff" showgrid="false" units="px">
	</sodipodi:namedview>
<g id="layer1" transform="translate(-188.5714,-232.3622)" inkscape:groupmode="layer" inkscape:label="Layer 1">
	
		<path id="rect3348" inkscape:export-filename="res/drawable-xxhdpi/icon.png" inkscape:export-xdpi="24" inkscape:export-ydpi="24" class="st0" d="
		M265.4,232.4L265.4,232.4c42.4,0,76.8,34.4,76.8,76.8l0,0c0,42.4-34.4,76.8-76.8,76.8l0,0c-42.4,0-76.8-34.4-76.8-76.8l0,0
		C188.6,266.7,223,232.4,265.4,232.4z"/>
</g>
<circle class="st1" cx="76.8" cy="76.8" r="50"/>
<g>
	<g>
		<path d="M53.6,54.8v38.6h-4.3V54.8H53.6z"/>
		<path d="M97.8,93.5l-26-31c-0.3-0.4-0.6-0.8-1-1.2c-0.3-0.4-0.6-0.8-0.8-1.2h-0.2c0,0.3,0.1,0.8,0.1,1.3c0,0.6,0,1.3,0,2.2v29.9
			h-4.3V54.8h4.8l25.6,30.6c0.4,0.5,0.7,0.9,1.1,1.4s0.6,0.8,0.9,1.2h0.2c-0.1-0.6-0.2-1.3-0.2-2c0-0.7-0.1-1.6-0.1-2.5V54.8h4.4
			v38.6H97.8z"/>
	</g>
</g>
</svg>
